<svg xmlns="http://www.w3.org/2000/svg" version="1.1" viewBox="0 0 70 70"><path fill="#988345" d="M35 0C15.67 0 0 15.67 0 35s15.67 35 35 35 35-15.67 35-35S54.33 0 35 0zM35 66C17.907 66 4 52.093 4 35S17.907 4 35 4s31 13.907 31 31S52.093 66 35 66z"/><path fill="#988345" d="M47.503 15.207c-0.483-1.037-1.617-1.887-3.369-2.524 -4.413-1.607-5.366 0.854-5.405 0.959l0.021 0.008 -0.021-0.007v0.002l-11.05 30.36 0 0 -1.322 3.634 1.214 10.552 7.713-7.303 1.429-3.925 0 0 10.944-30.069c0 0 0-0.001 0.001-0.001l0 0C47.685 16.813 47.921 16.104 47.503 15.207zM39.421 16.126c0.436 0.488 1.125 0.985 2.138 1.435L30.794 47.138 29.3 43.934 39.421 16.126zM30.603 53.252l-2.183-0.795 -0.534-4.64 0.688-1.891 1.943 4.166 4.166-1.942 -0.688 1.891L30.603 53.252zM35.408 46.156l-3.204 1.494 10.765-29.575c0.985 0.282 1.867 0.376 2.56 0.276L35.408 46.156zM44.906 16.895c-0.594 0-1.313-0.153-2.141-0.454 -2.31-0.841-2.723-1.861-2.628-2.273 0.202-0.4 1.173-0.917 3.483-0.076 2.321 0.845 2.727 1.872 2.627 2.278C46.199 16.455 45.91 16.895 44.906 16.895z"/><ellipse transform="matrix(0.342 -0.9397 0.9397 0.342 14.0734 50.6321)" fill="#988345" cx="43.193" cy="15.266" rx="0.5" ry="1"/><polygon fill="#988345" points="10,35 10,37 24,44 24,39 15,35 24,31 24,26 10,33 "/><polygon fill="#988345" points="47,26 47,31 56,35 47,39 47,44 61,37 61,35 61,33 "/></svg>